# xmcd CD database file
#
# Track frame offsets:
#	150
#	17602
#	34512
#	47457
#	65232
#	84605
#	106505
#	122447
#	134820
#	155910
#
# Disc length: 2252 seconds
#
# Revision: 0
# Processed by: cddbd v1.5.1PL2 Copyright (c) Steve Scherf et al.
# Submitted via: CDex 1.51
#
DISCID=7f08ca0a
DTITLE=Mama Yancey Estella - Maybe I'Ll Cry
DYEAR=1900
DGENRE=Blues
TTITLE0=Trouble In Mind
TTITLE1=Santa Fe Blues
TTITLE2=Monkey Woman Blues
TTITLE3=How Long How Long Blues
TTITLE4=Maybe I'Ll Cry
TTITLE5=Pallet On The Floor
TTITLE6=Weekly Blues
TTITLE7=Baby Won't You Please Come Home
TTITLE8=Four O'Clock Blues
TTITLE9=Kitchen Sink Blues
EXTD=
EXTT0=
EXTT1=
EXTT2=
EXTT3=
EXTT4=
EXTT5=
EXTT6=
EXTT7=
EXTT8=
EXTT9=
PLAYORDER=
